<svg width="80" height="80" viewBox="0 0 80 80" fill="none" xmlns="http://www.w3.org/2000/svg">
<path d="M35.6665 42.4167L32.8332 38.1667C32.5554 37.7222 32.1665 37.3611 31.6665 37.0833C31.1665 36.8056 30.6387 36.6667 30.0832 36.6667H8.24984C7.63873 35.2222 7.22206 33.8333 6.99984 32.5C6.77761 31.1667 6.6665 29.7778 6.6665 28.3333C6.6665 23.1111 8.4165 18.75 11.9165 15.25C15.4165 11.75 19.7776 10 24.9998 10C27.8887 10 30.6387 10.6111 33.2498 11.8333C35.8609 13.0556 38.1109 14.7778 39.9998 17C41.8887 14.7778 44.1387 13.0556 46.7498 11.8333C49.3609 10.6111 52.1109 10 54.9998 10C60.2221 10 64.5832 11.75 68.0832 15.25C71.5832 18.75 73.3332 23.1111 73.3332 28.3333C73.3332 29.7778 73.2221 31.1667 72.9998 32.5C72.7776 33.8333 72.3609 35.2222 71.7498 36.6667H51.9165L46.1665 28.1667C45.8332 27.6667 45.4032 27.2922 44.8765 27.0433C44.3498 26.7944 43.7798 26.6689 43.1665 26.6667C42.4443 26.6667 41.8198 26.8756 41.2932 27.2933C40.7665 27.7111 40.3909 28.2522 40.1665 28.9167L35.6665 42.4167ZM39.9998 71.1667L35.1665 66.8333C29.3332 61.6111 24.5554 57.1389 20.8332 53.4167C17.1109 49.6944 14.1943 46.3333 12.0832 43.3333H28.0832L33.8332 51.8333C34.1665 52.3333 34.5976 52.7089 35.1265 52.96C35.6554 53.2111 36.2243 53.3356 36.8332 53.3333C37.5554 53.3333 38.1809 53.1256 38.7098 52.71C39.2387 52.2944 39.6132 51.7522 39.8332 51.0833L44.3332 37.5L47.2498 41.8333C47.5276 42.2778 47.9165 42.6389 48.4165 42.9167C48.9165 43.1944 49.4443 43.3333 49.9998 43.3333H67.9165C65.8054 46.3333 62.8887 49.6944 59.1665 53.4167C55.4443 57.1389 50.6665 61.6111 44.8332 66.8333L39.9998 71.1667Z" fill="#3698FD"/>
</svg>
