<svg width="80" height="80" viewBox="0 0 80 80" fill="none" xmlns="http://www.w3.org/2000/svg">
<g id="Funcional">
<g id="Group">
<path id="Vector" d="M13.3335 56.6667L30.0002 60L32.5002 55M50.0002 70V56.6667L36.6668 46.6667L40.0002 26.6667M40.0002 13.3333C40.0002 14.2174 40.3514 15.0652 40.9765 15.6904C41.6016 16.3155 42.4494 16.6667 43.3335 16.6667C44.2176 16.6667 45.0654 16.3155 45.6905 15.6904C46.3156 15.0652 46.6668 14.2174 46.6668 13.3333C46.6668 12.4493 46.3156 11.6014 45.6905 10.9763C45.0654 10.3512 44.2176 10 43.3335 10C42.4494 10 41.6016 10.3512 40.9765 10.9763C40.3514 11.6014 40.0002 12.4493 40.0002 13.3333Z" stroke="#FF5B97" stroke-width="7" stroke-linecap="round" stroke-linejoin="round"/>
<path id="Vector_2" d="M23.3335 39.9998V29.9998L40.0002 26.6665L50.0002 36.6665L60.0002 39.9998" stroke="#FF5B97" stroke-width="7" stroke-linecap="round" stroke-linejoin="round"/>
</g>
</g>
</svg>
