<svg width="80" height="80" viewBox="0 0 80 80" fill="none" xmlns="http://www.w3.org/2000/svg">
<path d="M43.3333 69.9998L46.6667 39.9998M46.6667 39.9998L70 19.9998M46.6667 39.9998L30 36.6665H10M38.3333 28.3332L53.3333 16.6665" stroke="#5673FC" stroke-width="6" stroke-linecap="round" stroke-linejoin="round"/>
<path d="M24 23C24 23.7956 24.3161 24.5587 24.8787 25.1213C25.4413 25.6839 26.2044 26 27 26C27.7956 26 28.5587 25.6839 29.1213 25.1213C29.6839 24.5587 30 23.7956 30 23C30 22.2044 29.6839 21.4413 29.1213 20.8787C28.5587 20.3161 27.7956 20 27 20C26.2044 20 25.4413 20.3161 24.8787 20.8787C24.3161 21.4413 24 22.2044 24 23Z" stroke="#5673FC" stroke-width="6" stroke-linecap="round" stroke-linejoin="round"/>
</svg>
