<svg width="32" height="32" viewBox="0 0 32 32" fill="none" xmlns="http://www.w3.org/2000/svg">
<path d="M22 9.99967V10.013M5.33337 10.6663C5.33337 9.25185 5.89528 7.8953 6.89547 6.8951C7.89566 5.89491 9.25222 5.33301 10.6667 5.33301H21.3334C22.7479 5.33301 24.1044 5.89491 25.1046 6.8951C26.1048 7.8953 26.6667 9.25185 26.6667 10.6663V21.333C26.6667 22.7475 26.1048 24.104 25.1046 25.1042C24.1044 26.1044 22.7479 26.6663 21.3334 26.6663H10.6667C9.25222 26.6663 7.89566 26.1044 6.89547 25.1042C5.89528 24.104 5.33337 22.7475 5.33337 21.333V10.6663ZM12 15.9997C12 17.0605 12.4215 18.078 13.1716 18.8281C13.9218 19.5782 14.9392 19.9997 16 19.9997C17.0609 19.9997 18.0783 19.5782 18.8285 18.8281C19.5786 18.078 20 17.0605 20 15.9997C20 14.9388 19.5786 13.9214 18.8285 13.1712C18.0783 12.4211 17.0609 11.9997 16 11.9997C14.9392 11.9997 13.9218 12.4211 13.1716 13.1712C12.4215 13.9214 12 14.9388 12 15.9997Z" stroke="white" stroke-width="2" stroke-linecap="round" stroke-linejoin="round"/>
</svg>
