<svg width="32" height="32" viewBox="0 0 32 32" fill="none" xmlns="http://www.w3.org/2000/svg">
<path d="M10.6667 14.6663V21.333M10.6667 10.6663V10.6797M16 21.333V14.6663M21.3334 21.333V17.333C21.3334 16.6258 21.0524 15.9475 20.5523 15.4474C20.0522 14.9473 19.374 14.6663 18.6667 14.6663C17.9595 14.6663 17.2812 14.9473 16.7811 15.4474C16.281 15.9475 16 16.6258 16 17.333M5.33337 7.99967C5.33337 7.29243 5.61433 6.61415 6.11442 6.11406C6.61452 5.61396 7.2928 5.33301 8.00004 5.33301H24C24.7073 5.33301 25.3856 5.61396 25.8857 6.11406C26.3858 6.61415 26.6667 7.29243 26.6667 7.99967V23.9997C26.6667 24.7069 26.3858 25.3852 25.8857 25.8853C25.3856 26.3854 24.7073 26.6663 24 26.6663H8.00004C7.2928 26.6663 6.61452 26.3854 6.11442 25.8853C5.61433 25.3852 5.33337 24.7069 5.33337 23.9997V7.99967Z" stroke="white" stroke-width="2" stroke-linecap="round" stroke-linejoin="round"/>
</svg>
