<svg width="36" height="44" viewBox="0 0 36 44" fill="none" xmlns="http://www.w3.org/2000/svg">
<g id="Vector">
<path d="M17.9766 40.5303C17.9533 40.5081 17.9286 40.4832 17.9066 40.461L17.9766 40.5303Z" fill="#EFEFEF"/>
<path d="M18.0234 40.5577C18.4983 41.0335 19.2016 41.6438 20.1593 42.1875C20.703 42.496 22.4769 43.4357 24.9605 43.4945C25.8235 43.5154 27.8582 43.5376 30.0213 42.3182C30.7662 41.8987 32.8034 40.7499 33.7845 38.2666C33.9882 37.7517 34.5864 36.1755 34.1738 34.215C33.8104 32.4859 32.8554 31.3802 32.3571 30.8169C31.6083 29.97 30.6701 29.1178 30.6701 29.1178C30.6701 29.1178 32.6944 27.3207 33.5249 25.9811C34.1738 24.9355 36.1539 21.6066 35.9904 18.2699C35.9372 17.1852 35.8256 15.4011 34.563 13.8262C34.2918 13.4877 33.5911 12.6356 32.3571 12.1272C30.7337 11.458 29.2557 11.8226 28.5939 11.9965C26.9537 12.4265 26.0194 13.3753 25.2201 14.0876C24.8619 14.4065 23.2736 16.1788 22.495 16.963C21.6022 17.8622 20.8782 18.2922 20.6783 18.4006C19.6843 18.9404 18.7007 19.0489 18.0234 19.0541H17.9766C17.2993 19.0489 16.3157 18.9404 15.3217 18.4006C15.1218 18.2922 14.3978 17.8622 13.505 16.963C12.7264 16.1788 11.1381 14.4065 10.7799 14.0876C9.9806 13.3753 9.0463 12.4265 7.40609 11.9965C6.74429 11.8226 5.26628 11.458 3.64294 12.1272C2.40889 12.6356 1.70816 13.4877 1.43696 13.8262C0.174355 15.4011 0.0627583 17.1852 0.00955515 18.2699C-0.153947 21.6066 1.82625 24.9355 2.47507 25.9811C3.30555 27.3207 5.18121 29.2035 5.18121 29.2035C5.18121 29.2035 4.39168 29.97 3.64294 30.8169C3.14465 31.3802 2.18959 32.4859 1.82625 34.215C1.4136 36.1755 2.01181 37.7517 2.21554 38.2666C3.19655 40.7499 5.23384 41.8987 5.97869 42.3182C8.14185 43.5376 10.1765 43.5154 11.0395 43.4945C13.5231 43.4357 15.297 42.496 15.8407 42.1875C16.7984 41.6438 17.5017 41.0335 17.9766 40.5577M18.0454 22.3216C18.9564 22.3294 19.7038 22.1948 20.2293 22.0615C20.5654 21.9752 21.7554 21.6524 23.0673 20.7623C23.7005 20.3323 24.1171 19.9363 24.6154 19.4632C24.9047 19.1874 25.4134 18.6267 26.4204 17.5145C26.5008 17.4256 27.2703 16.5892 28.3551 15.6965C29.7735 14.5281 30.8583 15.7305 31.0633 15.9566C35.1898 20.5036 27.785 26.9646 27.785 26.9646C26.4147 26.0955 26.1154 25.8177 25.1305 25.44C24.714 25.2805 23.0024 24.6388 20.616 24.2716C19.6973 24.1304 18.8357 24.0546 18.0454 24.0219H17.9079C17.1176 24.0546 16.256 24.1291 15.3372 24.2716C12.9509 24.6388 11.2393 25.2805 10.8228 25.44C9.83916 25.8177 9.16439 26.1131 7.79409 26.9822C7.79409 26.9822 1.63161 20.3755 4.88998 15.9579C5.095 15.7318 6.17983 14.5294 7.59814 15.6978C8.68297 16.5918 9.45246 17.4282 9.53292 17.5158C10.5399 18.628 11.0499 19.1887 11.3379 19.4645C11.8362 19.9376 12.2528 20.3336 12.886 20.7636C14.1979 21.6537 15.3866 21.9765 15.7239 22.0628C16.2482 22.1948 16.9969 22.3307 17.9079 22.3229H18.0454V22.3216ZM15.1712 34.1222C15.3256 34.1575 10.5048 30.6744 10.1571 29.7399C10.0001 28.9061 11.8907 28.3271 13.7645 27.8135C15.406 27.3612 16.849 27.2711 17.9079 27.288H17.9831C19.042 27.2711 20.485 27.3612 22.1265 27.8135C24.0262 28.3362 25.3161 29.0734 24.9813 29.6432C24.7789 29.9869 19.7336 35.2789 17.9766 36.1467C17.9766 36.1467 15.9926 34.811 15.1712 34.1222ZM9.74054 40.0689C8.13407 39.9121 5.69192 39.0103 5.19881 37.0629C4.91333 35.9363 5.38827 34.8907 5.5881 34.449C6.1928 33.1158 7.22961 32.4192 7.71104 32.1435C7.75775 32.116 7.81614 32.1291 7.84729 32.1748C8.12368 32.5734 10.1363 34.2372 11.2341 35.1965C12.742 36.6786 15.0167 38.2418 15.0115 38.2836C14.8883 39.2272 11.966 40.2859 9.74054 40.0689ZM21.466 38.2353C21.466 38.2353 23.0907 36.7976 25.2798 34.8868C26.5164 33.8073 28.2137 32.0925 28.2137 32.0925C28.6484 32.3317 29.7774 33.0296 30.4197 34.445C30.6195 34.8868 31.0945 35.9324 30.809 37.059C30.3159 39.0064 27.8737 39.9082 26.2673 40.065C23.9886 40.2872 21.4751 39.1985 21.466 38.2353Z" fill="#CFFC87"/>
<path d="M17.9775 0.5C13.7848 0.5 10.3863 3.86415 10.3863 8.01509C10.3863 12.166 13.7848 15.5302 17.9775 15.5302C22.1701 15.5302 25.5687 12.166 25.5687 8.01509C25.5687 3.86546 22.1701 0.5 17.9775 0.5ZM18.1721 11.4786C16.0933 11.4786 14.409 9.86969 14.409 7.8844C14.409 5.89911 16.0933 4.29022 18.1721 4.29022C20.2509 4.29022 21.9353 5.89911 21.9353 7.8844C21.9353 9.86969 20.2509 11.4786 18.1721 11.4786Z" fill="#CFFC87"/>
</g>
</svg>
