<svg width="80" height="80" viewBox="0 0 80 80" fill="none" xmlns="http://www.w3.org/2000/svg">
<g id="Musculacion">
<path id="Vector" fill-rule="evenodd" clip-rule="evenodd" d="M16.8084 11.6219C16.7899 11.4038 16.7286 11.1914 16.6281 10.997C16.5275 10.8026 16.3897 10.6298 16.2224 10.4887C16.0551 10.3475 15.8616 10.2407 15.653 10.1744C15.4444 10.108 15.2248 10.0834 15.0067 10.1019L11.685 10.3852C11.2449 10.4225 10.8375 10.6331 10.5525 10.9706C10.2675 11.3081 10.1281 11.745 10.165 12.1852L10.7134 18.6335C10.4736 18.8007 10.282 19.0281 10.1578 19.2927C10.0337 19.5573 9.98129 19.8499 10.0059 20.1412C10.0306 20.4325 10.1314 20.7121 10.2983 20.9521C10.4652 21.1921 10.6922 21.384 10.9567 21.5085L11.54 28.3785C11.5585 28.5968 11.6198 28.8093 11.7205 29.0038C11.8211 29.1984 11.9591 29.3712 12.1266 29.5124C12.2941 29.6535 12.4878 29.7603 12.6966 29.8266C12.9053 29.8928 13.1251 29.9173 13.3434 29.8985L16.665 29.6152C17.1049 29.5775 17.5118 29.3667 17.7965 29.0293C18.0812 28.6918 18.2203 28.2552 18.1834 27.8152L17.5684 20.5719C18.4173 20.4197 19.2523 20.2752 20.0734 20.1385C20.25 22.8885 20.7567 27.5535 21.695 31.9469C22.2934 34.7469 23.1134 37.6702 24.2534 39.9702C24.82 41.1169 25.5567 42.2902 26.5317 43.2169C27.395 44.0369 28.56 44.7619 30 44.9519V52.1719L29.4584 51.9769L29.0867 51.8435C27.4117 51.2435 25.7084 50.6335 24.41 50.3052C23.7784 50.1452 22.8234 49.9369 21.8867 50.0202C21.087 50.0808 20.324 50.3805 19.6967 50.8802C19.2677 51.2296 18.9225 51.6708 18.6866 52.1712C18.4507 52.6716 18.33 53.2186 18.3334 53.7719C18.3334 55.1435 18.8017 58.6719 19.2 61.4902C19.4456 63.23 19.7012 64.9683 19.9667 66.7052L20.02 67.0535L20.035 67.1452L20.0384 67.1685V67.1769L23.3334 66.6669L20.04 67.1785C20.1662 67.9877 20.5858 68.722 21.2187 69.2416C21.8517 69.7611 22.6538 70.0295 23.472 69.9955C24.2901 69.9615 25.0672 69.6275 25.6549 69.0572C26.2426 68.487 26.5998 67.7203 26.6584 66.9035L27.275 58.2769C29.125 58.9402 31.2884 59.7052 33.4217 60.3052C35.5434 60.9019 37.8717 61.4052 40 61.4052C42.1284 61.4052 44.4567 60.9019 46.58 60.3052C48.6967 59.7102 50.8384 58.9519 52.68 58.2935L53.3434 66.9219C53.4066 67.7365 53.7669 68.4995 54.3558 69.066C54.9446 69.6325 55.721 69.9629 56.5375 69.9946C57.354 70.0262 58.1536 69.7569 58.7846 69.2378C59.4155 68.7186 59.8339 67.9858 59.96 67.1785L56.6667 66.6669L59.9617 67.1769V67.1669L59.9667 67.1435L59.98 67.0519L60.0334 66.7019C60.2986 64.9655 60.5542 63.2277 60.8 61.4885C61.2 58.6702 61.6667 55.1419 61.6667 53.7719C61.6667 52.7885 61.2834 51.6752 60.305 50.8785C59.6773 50.3785 58.9137 50.0788 58.1134 50.0185C57.1767 49.9352 56.2217 50.1435 55.5917 50.3019C54.2917 50.6319 52.59 51.2419 50.915 51.8419L50.5434 51.9752L50 52.1702V44.9585C53.15 44.6069 55.0584 42.0535 56.1117 40.0219C57.33 37.6685 58.1267 34.6935 58.6667 31.8785C59.5134 27.4802 59.8484 22.8619 59.9567 20.1585C60.7678 20.2919 61.5928 20.433 62.4317 20.5819L61.8167 27.8135C61.7798 28.2538 61.9191 28.6906 62.2042 29.0281C62.4892 29.3657 62.8965 29.5762 63.3367 29.6135L66.6584 29.8969C67.0986 29.9338 67.5354 29.7944 67.873 29.5094C68.2105 29.2244 68.421 28.8171 68.4584 28.3769L69.0434 21.5069C69.3086 21.3831 69.5365 21.1915 69.704 20.9515C69.8716 20.7115 69.9728 20.4315 69.9975 20.1398C70.0221 19.8482 69.9694 19.5552 69.8446 19.2904C69.7198 19.0256 69.5274 18.7985 69.2867 18.6319L69.8367 12.1835C69.8736 11.7431 69.734 11.306 69.4487 10.9684C69.1633 10.6308 68.7555 10.4205 68.315 10.3835L64.995 10.1002C64.7769 10.0817 64.5573 10.1063 64.3487 10.1727C64.1401 10.2391 63.9467 10.3459 63.7794 10.487C63.6121 10.6282 63.4742 10.8009 63.3736 10.9953C63.2731 11.1898 63.2118 11.4021 63.1934 11.6202L62.715 17.2469C61.6737 17.0637 60.6308 16.8887 59.5867 16.7219C59.3376 16.2701 58.987 15.8823 58.5625 15.5891C58.1381 15.2958 57.6513 15.1051 57.1406 15.0319C56.6299 14.9587 56.1092 15.005 55.6195 15.1673C55.1297 15.3295 54.6844 15.6033 54.3184 15.9669C44.19 14.6885 35.615 14.6902 25.665 15.9502C25.2991 15.5922 24.8555 15.3232 24.3688 15.1643C23.8821 15.0053 23.3653 14.9606 22.8586 15.0336C22.3518 15.1066 21.8687 15.2954 21.4466 15.5853C21.0246 15.8752 20.675 16.2584 20.425 16.7052C19.3973 16.8685 18.3506 17.0452 17.285 17.2352L16.8084 11.6219ZM28.2134 30.5552C27.4378 26.8043 26.9299 23.0031 26.6934 19.1802C35.9117 18.0585 43.9367 18.0585 53.3184 19.2035C53.2567 21.4235 52.9717 26.1935 52.12 30.6202C51.62 33.2219 50.97 35.4552 50.1917 36.9569C49.6617 37.9785 49.3 38.2652 49.1784 38.3335H31.0734C30.88 38.1319 30.58 37.7235 30.2267 37.0102C29.4567 35.4552 28.7734 33.1719 28.2134 30.5552ZM47.5 27.5002C47.5 29.4893 46.7099 31.397 45.3033 32.8035C43.8968 34.21 41.9892 35.0002 40 35.0002C38.0109 35.0002 36.1033 34.21 34.6967 32.8035C33.2902 31.397 32.5 29.4893 32.5 27.5002C32.5 25.5111 33.2902 23.6034 34.6967 22.1969C36.1033 20.7904 38.0109 20.0002 40 20.0002C41.9892 20.0002 43.8968 20.7904 45.3033 22.1969C46.7099 23.6034 47.5 25.5111 47.5 27.5002Z" fill="#1BC1D7"/>
</g>
</svg>
