<svg width="80" height="80" viewBox="0 0 80 80" fill="none" xmlns="http://www.w3.org/2000/svg">
<g id="Frame 59">
<g id="Group 1">
<path id="Vector 8" d="M25 56H40" stroke="#665EFC" stroke-width="6" stroke-linecap="round"/>
<path id="Vector" d="M10 54C10 54.7956 10.3161 55.5587 10.8787 56.1213C11.4413 56.6839 12.2044 57 13 57C13.7956 57 14.5587 56.6839 15.1213 56.1213C15.6839 55.5587 16 54.7956 16 54C16 53.2044 15.6839 52.4413 15.1213 51.8787C14.5587 51.3161 13.7956 51 13 51C12.2044 51 11.4413 51.3161 10.8787 51.8787C10.3161 52.4413 10 53.2044 10 54Z" stroke="#665EFC" stroke-width="6" stroke-linecap="round" stroke-linejoin="round"/>
<path id="Vector 7" d="M41 40L25 56" stroke="#665EFC" stroke-width="6" stroke-linecap="round"/>
<ellipse id="Ellipse 1" cx="58.5" cy="48" rx="11.5" ry="12" fill="#665EFC"/>
<path id="Vector 5" d="M41 40L61 19" stroke="#665EFC" stroke-width="6" stroke-linecap="round"/>
<path id="Vector 6" d="M41.0121 39C41.0121 39 36.8416 23 38.3153 23C39.789 23 56 30.8049 56 30.8049" stroke="#665EFC" stroke-width="6" stroke-linecap="round"/>
</g>
</g>
</svg>
