<svg width="80" height="80" viewBox="0 0 80 80" fill="none" xmlns="http://www.w3.org/2000/svg">
<g id="Yoga">
<g id="Group">
<g id="Group_2">
<g id="Group_3">
<path id="Vector" d="M37.7489 26.7828C34.941 27.0663 33.469 27.7986 31.5216 29.8537C30.0497 31.3891 29.2571 32.6411 26.902 36.9403C24.479 41.3813 23.6638 42.6805 22.4636 44.0033C21.4219 45.1608 20.5841 45.7513 19.5198 46.1529C18.4102 46.5309 17.5497 47.3104 17.0741 48.3025C16.7118 49.0348 16.6665 49.2947 16.6665 50.3104C16.6665 51.2553 16.7344 51.6096 16.9835 52.1293C17.5949 53.334 18.3875 53.9954 19.633 54.3261L20.3576 54.5387L20.335 55.6017C20.2897 57.4679 21.1728 59.5466 22.3957 60.4679C23.8902 61.6017 27.1964 62.4758 32.2462 63.0899C34.1257 63.3025 41.825 63.4206 43.4328 63.2553C45.0406 63.0899 45.6973 62.8065 46.3767 61.9797C47.0107 61.2238 47.2372 60.5624 47.2598 59.4758C47.2824 58.3655 46.8748 57.4679 46.1049 56.9954C45.6294 56.6884 45.5161 56.6884 40.9419 56.6884C36.1411 56.6647 34.556 56.5466 31.9518 55.9561C30.8649 55.7198 30.5931 55.5072 30.729 54.9876C30.8422 54.5151 31.0913 54.4443 32.0877 54.6805C34.6013 55.271 36.0053 55.3891 40.9419 55.3891H45.7652L46.4219 55.7671C47.6901 56.5466 48.46 58.0112 48.46 59.6411C48.46 60.7986 48.2562 61.46 47.6221 62.334C47.1239 63.0191 47.1013 63.0663 47.3957 63.0663C48.143 63.0663 51.6529 62.4521 53.1248 62.0506C56.1366 61.2474 57.4047 60.3498 58.2879 58.3655C58.6955 57.4915 58.7181 57.2789 58.7181 56.0269V54.6332L59.4201 54.4679C60.5297 54.208 61.5261 53.4049 62.0469 52.3183C62.4319 51.5387 62.4998 51.2789 62.4998 50.3813C62.4998 49.2238 62.2281 48.4679 61.5261 47.5466C61.1411 47.0506 60.6203 46.7198 58.9672 45.9639C56.9065 45.0191 55.4573 43.1057 52.219 37.1293C49.5469 32.1923 48.0524 30.1135 45.8105 28.3655C44.7009 27.4915 43.3649 27.0663 41.2136 26.8537C39.4926 26.6175 39.4926 26.6175 37.7489 26.7828ZM31.8839 47.8065V51.586H29.5741C28.2834 51.586 26.9926 51.6332 26.6303 51.7041L26.0189 51.8222L26.6982 51.208C28.6683 49.4364 29.3703 48.6096 30.027 47.2868C30.6384 46.0584 31.748 44.0269 31.8386 44.0269C31.8612 44.0269 31.8839 45.7277 31.8839 47.8065ZM49.0488 47.0742C49.796 48.6332 50.4301 49.3655 52.4908 51.208L53.1701 51.8222L52.5587 51.7041C52.219 51.6569 50.9056 51.586 49.6149 51.586H47.3051V47.7828L47.3277 43.9797L47.8033 44.7592C48.075 45.1844 48.6411 46.2474 49.0488 47.0742Z" fill="#C93FEA"/>
</g>
</g>
</g>
<g id="Vector_2">
<path d="M36 17.3333C36 18.2174 36.3512 19.0652 36.9763 19.6904C37.6014 20.3155 38.4493 20.6667 39.3333 20.6667C40.2174 20.6667 41.0652 20.3155 41.6904 19.6904C42.3155 19.0652 42.6667 18.2174 42.6667 17.3333C42.6667 16.4493 42.3155 15.6014 41.6904 14.9763C41.0652 14.3512 40.2174 14 39.3333 14C38.4493 14 37.6014 14.3512 36.9763 14.9763C36.3512 15.6014 36 16.4493 36 17.3333Z" fill="#C93FEA"/>
<path d="M36 17.3333C36 18.2174 36.3512 19.0652 36.9763 19.6904C37.6014 20.3155 38.4493 20.6667 39.3333 20.6667C40.2174 20.6667 41.0652 20.3155 41.6904 19.6904C42.3155 19.0652 42.6667 18.2174 42.6667 17.3333C42.6667 16.4493 42.3155 15.6014 41.6904 14.9763C41.0652 14.3512 40.2174 14 39.3333 14C38.4493 14 37.6014 14.3512 36.9763 14.9763C36.3512 15.6014 36 16.4493 36 17.3333Z" fill="#C93FEA"/>
<path d="M36 17.3333C36 18.2174 36.3512 19.0652 36.9763 19.6904C37.6014 20.3155 38.4493 20.6667 39.3333 20.6667C40.2174 20.6667 41.0652 20.3155 41.6904 19.6904C42.3155 19.0652 42.6667 18.2174 42.6667 17.3333C42.6667 16.4493 42.3155 15.6014 41.6904 14.9763C41.0652 14.3512 40.2174 14 39.3333 14C38.4493 14 37.6014 14.3512 36.9763 14.9763C36.3512 15.6014 36 16.4493 36 17.3333Z" stroke="#C93FEA" stroke-width="7" stroke-linecap="round" stroke-linejoin="round"/>
<path d="M36 17.3333C36 18.2174 36.3512 19.0652 36.9763 19.6904C37.6014 20.3155 38.4493 20.6667 39.3333 20.6667C40.2174 20.6667 41.0652 20.3155 41.6904 19.6904C42.3155 19.0652 42.6667 18.2174 42.6667 17.3333C42.6667 16.4493 42.3155 15.6014 41.6904 14.9763C41.0652 14.3512 40.2174 14 39.3333 14C38.4493 14 37.6014 14.3512 36.9763 14.9763C36.3512 15.6014 36 16.4493 36 17.3333Z" stroke="#C93FEA" stroke-width="7" stroke-linecap="round" stroke-linejoin="round"/>
</g>
</g>
</svg>
